<?xml version='1.0' encoding='UTF-8' standalone='no'?>
<svg xmlns:cc="http://creativecommons.org/ns#" height="14.986mm" width="39.9627mm" xmlns:xlink="http://www.w3.org/1999/xlink" viewBox="0 0 472 177" version="1.2" baseProfile="tiny" xmlns="http://www.w3.org/2000/svg">
 <defs/>
 <g stroke-linejoin="bevel" stroke="black" stroke-linecap="square" fill="none" stroke-width="1" fill-rule="evenodd">
  <g font-weight="400" stroke-opacity="1" stroke-linejoin="bevel" font-size="34.375" stroke="#000000" stroke-linecap="square" fill="none" font-style="normal" stroke-width="1" transform="matrix(1,0,0,1,0,0)" font-family="MS Shell Dlg 2"/>
  <g font-weight="400" stroke-opacity="1" stroke-linejoin="bevel" font-size="34.375" stroke="#000000" stroke-linecap="square" fill="none" font-style="normal" stroke-width="1" transform="matrix(1,0,0,1,0,0)" font-family="MS Shell Dlg 2"/>
  <g font-weight="400" stroke-opacity="1" stroke-linejoin="bevel" font-size="34.375" stroke="#000000" stroke-linecap="square" fill="none" font-style="normal" stroke-width="1" transform="matrix(11.8,0,0,11.8,0,0)" font-family="MS Shell Dlg 2"/>
  <g font-weight="400" stroke-opacity="1" stroke-linejoin="bevel" font-size="34.375" stroke="#000000" stroke-linecap="square" fill="none" font-style="normal" stroke-width="1" transform="matrix(0.999067,0,0,0.999067,0,0)" font-family="MS Shell Dlg 2"/>
  <g font-weight="400" fill-opacity="1" font-size="34.375" stroke="none" fill="#ffffff" font-style="normal" transform="matrix(0.999067,0,0,0.999067,0,0)" font-family="MS Shell Dlg 2">
   <path vector-effect="none" d="M-2,-2 L475,-2 L475,180 L-2,180 L-2,-2" fill-rule="evenodd"/>
  </g>
  <g font-weight="400" stroke-opacity="1" stroke-linejoin="bevel" font-size="34.375" stroke="#000000" stroke-linecap="square" fill="none" font-style="normal" stroke-width="1" transform="matrix(0.999067,0,0,0.999067,0,0)" font-family="MS Shell Dlg 2"/>
  <g font-weight="400" stroke-opacity="1" stroke-linejoin="bevel" font-size="34.375" stroke="#000000" stroke-linecap="square" fill="none" font-style="normal" stroke-width="1" transform="matrix(11.8,0,0,11.8,0,0)" font-family="MS Shell Dlg 2"/>
  <g font-weight="400" stroke-opacity="1" stroke-linejoin="bevel" font-size="34.375" stroke="#000000" stroke-linecap="square" fill="none" font-style="normal" stroke-width="1" transform="matrix(11.8,0,0,11.8,0,0)" font-family="MS Shell Dlg 2"/>
  <g font-weight="400" stroke-opacity="1" stroke-linejoin="bevel" font-size="34.375" stroke="#000000" stroke-linecap="square" fill="none" font-style="normal" stroke-width="1" transform="matrix(11.8,0,0,11.8,0,0)" font-family="MS Shell Dlg 2"/>
  <g font-weight="400" stroke-opacity="1" stroke-linejoin="bevel" font-size="34.375" stroke="#000000" stroke-linecap="square" fill="none" font-style="normal" stroke-width="1" transform="matrix(11.8,0,0,11.8,0,0)" font-family="MS Shell Dlg 2"/>
  <g font-weight="400" stroke-opacity="1" stroke-linejoin="bevel" font-size="34.375" stroke="#000000" stroke-linecap="square" fill="none" font-style="normal" stroke-width="1" transform="matrix(11.8,0,0,11.8,0,0)" font-family="MS Shell Dlg 2"/>
  <g font-weight="400" stroke-opacity="1" stroke-linejoin="bevel" font-size="34.375" stroke="#000000" stroke-linecap="square" fill="none" font-style="normal" stroke-width="1" transform="matrix(11.8,0,0,11.8,0,0)" font-family="MS Shell Dlg 2"/>
  <g font-weight="400" stroke-opacity="1" stroke-linejoin="bevel" font-size="34.375" stroke="#000000" stroke-linecap="square" fill="none" font-style="normal" stroke-width="1" transform="matrix(0.999067,0,0,0.999067,0,0)" font-family="MS Shell Dlg 2"/>
  <g font-weight="400" stroke-opacity="1" stroke-linejoin="bevel" font-size="34.375" stroke="#000000" stroke-linecap="square" fill="none" font-style="normal" stroke-width="1" transform="matrix(11.8,0,0,11.8,0,0)" font-family="MS Shell Dlg 2"/>
  <g font-weight="400" fill-opacity="1" stroke-opacity="1" stroke-linejoin="bevel" font-size="34.375" stroke="#ffffff" stroke-linecap="square" fill="#000000" font-style="normal" stroke-width="4.72441" transform="matrix(0.999067,0,0,0.999067,53.1,35.4)" font-family="MS Shell Dlg 2">
   <path vector-effect="none" d="M23.811,12 C23.811,18.523 18.523,23.811 12,23.811 C5.47695,23.811 0.188976,18.523 0.188976,12 C0.188976,5.47695 5.47695,0.188976 12,0.188976 C18.523,0.188976 23.811,5.47695 23.811,12 " fill-rule="evenodd"/>
  </g>
  <g font-weight="400" stroke-opacity="1" stroke-linejoin="bevel" font-size="34.375" stroke="#000000" stroke-linecap="square" fill="none" font-style="normal" stroke-width="1" transform="matrix(11.8,0,0,11.8,0,0)" font-family="MS Shell Dlg 2"/>
  <g font-weight="400" stroke-opacity="1" stroke-linejoin="bevel" font-size="34.375" stroke="#000000" stroke-linecap="square" fill="none" font-style="normal" stroke-width="1" transform="matrix(0.999067,0,0,0.999067,0,0)" font-family="MS Shell Dlg 2"/>
  <g font-weight="400" fill-opacity="1" font-size="34.375" stroke="none" fill="#000000" font-style="normal" transform="matrix(0.999067,0,0,0.999067,129.8,64.7364)" font-family="MS Shell Dlg 2">
   <path vector-effect="none" d="M26.5381,-13.1592 L33.5449,-10.9375 C32.4707,-7.03125 30.6844,-4.13005 28.186,-2.23389 C25.6877,-0.337728 22.5179,0.610352 18.6768,0.610352 C13.9242,0.610352 10.0179,-1.01318 6.95801,-4.26025 C3.89811,-7.50732 2.36816,-11.9466 2.36816,-17.5781 C2.36816,-23.5352 3.90625,-28.1616 6.98242,-31.4575 C10.0586,-34.7534 14.1032,-36.4014 19.1162,-36.4014 C23.4945,-36.4014 27.0508,-35.1074 29.7852,-32.5195 C31.4128,-30.9896 32.6335,-28.7923 33.4473,-25.9277 L26.2939,-24.2188 C25.8708,-26.0742 24.9878,-27.5391 23.645,-28.6133 C22.3022,-29.6875 20.6706,-30.2246 18.75,-30.2246 C16.097,-30.2246 13.9445,-29.2725 12.2925,-27.3682 C10.6405,-25.4639 9.81445,-22.3796 9.81445,-18.1152 C9.81445,-13.5905 10.6283,-10.3678 12.2559,-8.44727 C13.8835,-6.52669 15.9993,-5.56641 18.6035,-5.56641 C20.5241,-5.56641 22.1761,-6.17676 23.5596,-7.39746 C24.943,-8.61816 25.9359,-10.5387 26.5381,-13.1592 M38.002,-13.3301 C38.002,-15.6087 38.5635,-17.8141 39.6865,-19.9463 C40.8096,-22.0785 42.4006,-23.7061 44.4595,-24.8291 C46.5184,-25.9521 48.8174,-26.5137 51.3564,-26.5137 C55.279,-26.5137 58.4935,-25.2401 61,-22.6929 C63.5065,-20.1457 64.7598,-16.9271 64.7598,-13.0371 C64.7598,-9.11458 63.4943,-5.86344 60.9634,-3.28369 C58.4325,-0.703939 55.2464,0.585938 51.4053,0.585938 C49.029,0.585938 46.7625,0.0488281 44.606,-1.02539 C42.4494,-2.09961 40.8096,-3.67432 39.6865,-5.74951 C38.5635,-7.82471 38.002,-10.3516 38.002,-13.3301 M45.0332,-12.9639 C45.0332,-10.3923 45.6436,-8.42285 46.8643,-7.05566 C48.085,-5.68848 49.5905,-5.00488 51.3809,-5.00488 C53.1712,-5.00488 54.6727,-5.68848 55.8853,-7.05566 C57.0978,-8.42285 57.7041,-10.4085 57.7041,-13.0127 C57.7041,-15.5518 57.0978,-17.5049 55.8853,-18.8721 C54.6727,-20.2393 53.1712,-20.9229 51.3809,-20.9229 C49.5905,-20.9229 48.085,-20.2393 46.8643,-18.8721 C45.6436,-17.5049 45.0332,-15.5355 45.0332,-12.9639 M70.0762,-25.9277 L76.3994,-25.9277 L76.3994,-22.3877 C78.6618,-25.1383 81.3555,-26.5137 84.4805,-26.5137 C86.1406,-26.5137 87.5811,-26.1719 88.8018,-25.4883 C90.0225,-24.8047 91.0234,-23.7712 91.8047,-22.3877 C92.944,-23.7712 94.1729,-24.8047 95.4912,-25.4883 C96.8096,-26.1719 98.2174,-26.5137 99.7148,-26.5137 C101.619,-26.5137 103.23,-26.1271 104.549,-25.354 C105.867,-24.5809 106.852,-23.4456 107.503,-21.9482 C107.975,-20.8415 108.211,-19.0511 108.211,-16.5771 L108.211,0 L101.351,0 L101.351,-14.8193 C101.351,-17.391 101.115,-19.0511 100.643,-19.7998 C100.008,-20.7764 99.0313,-21.2646 97.7129,-21.2646 C96.7526,-21.2646 95.8493,-20.9717 95.0029,-20.3857 C94.1566,-19.7998 93.5462,-18.9412 93.1719,-17.8101 C92.7975,-16.6789 92.6104,-14.8926 92.6104,-12.4512 L92.6104,0 L85.75,0 L85.75,-14.209 C85.75,-16.7318 85.6279,-18.3594 85.3838,-19.0918 C85.1396,-19.8242 84.7612,-20.3695 84.2485,-20.7275 C83.7358,-21.0856 83.04,-21.2646 82.1611,-21.2646 C81.1032,-21.2646 80.151,-20.9798 79.3047,-20.4102 C78.4583,-19.8405 77.8521,-19.0186 77.4858,-17.9443 C77.1196,-16.8701 76.9365,-15.0879 76.9365,-12.5977 L76.9365,0 L70.0762,0 L70.0762,-25.9277 M114.394,-25.9277 L120.79,-25.9277 L120.79,-22.1191 C121.62,-23.4212 122.743,-24.4792 124.159,-25.293 C125.575,-26.1068 127.146,-26.5137 128.871,-26.5137 C131.882,-26.5137 134.438,-25.3337 136.537,-22.9736 C138.637,-20.6136 139.687,-17.3258 139.687,-13.1104 C139.687,-8.78092 138.629,-5.41585 136.513,-3.01514 C134.397,-0.614421 131.833,0.585938 128.822,0.585938 C127.39,0.585938 126.092,0.301107 124.928,-0.268555 C123.764,-0.838216 122.54,-1.81478 121.254,-3.19824 L121.254,9.86328 L114.394,9.86328 L114.394,-25.9277 M121.181,-13.4033 C121.181,-10.4899 121.758,-8.3374 122.914,-6.9458 C124.07,-5.5542 125.478,-4.8584 127.138,-4.8584 C128.733,-4.8584 130.059,-5.49723 131.117,-6.7749 C132.175,-8.05257 132.704,-10.1481 132.704,-13.0615 C132.704,-15.7796 132.159,-17.7979 131.068,-19.1162 C129.978,-20.4346 128.627,-21.0938 127.016,-21.0938 C125.339,-21.0938 123.948,-20.4468 122.841,-19.1528 C121.734,-17.8589 121.181,-15.9424 121.181,-13.4033 M144.002,-13.3301 C144.002,-15.6087 144.563,-17.8141 145.687,-19.9463 C146.81,-22.0785 148.401,-23.7061 150.459,-24.8291 C152.518,-25.9521 154.817,-26.5137 157.356,-26.5137 C161.279,-26.5137 164.493,-25.2401 167,-22.6929 C169.507,-20.1457 170.76,-16.9271 170.76,-13.0371 C170.76,-9.11458 169.494,-5.86344 166.963,-3.28369 C164.432,-0.703939 161.246,0.585938 157.405,0.585938 C155.029,0.585938 152.763,0.0488281 150.606,-1.02539 C148.449,-2.09961 146.81,-3.67432 145.687,-5.74951 C144.563,-7.82471 144.002,-10.3516 144.002,-13.3301 M151.033,-12.9639 C151.033,-10.3923 151.644,-8.42285 152.864,-7.05566 C154.085,-5.68848 155.59,-5.00488 157.381,-5.00488 C159.171,-5.00488 160.673,-5.68848 161.885,-7.05566 C163.098,-8.42285 163.704,-10.4085 163.704,-13.0127 C163.704,-15.5518 163.098,-17.5049 161.885,-18.8721 C160.673,-20.2393 159.171,-20.9229 157.381,-20.9229 C155.59,-20.9229 154.085,-20.2393 152.864,-18.8721 C151.644,-17.5049 151.033,-15.5355 151.033,-12.9639 M174.172,-7.39746 L181.057,-8.44727 C181.35,-7.11263 181.944,-6.09945 182.839,-5.40771 C183.734,-4.71598 184.987,-4.37012 186.599,-4.37012 C188.373,-4.37012 189.707,-4.69564 190.603,-5.34668 C191.205,-5.80241 191.506,-6.41276 191.506,-7.17773 C191.506,-7.69857 191.343,-8.12988 191.018,-8.47168 C190.676,-8.7972 189.911,-9.09831 188.723,-9.375 C183.189,-10.5957 179.681,-11.7106 178.2,-12.7197 C176.149,-14.1195 175.124,-16.0645 175.124,-18.5547 C175.124,-20.8008 176.011,-22.6888 177.785,-24.2188 C179.559,-25.7487 182.31,-26.5137 186.037,-26.5137 C189.585,-26.5137 192.222,-25.9359 193.947,-24.7803 C195.673,-23.6247 196.861,-21.9157 197.512,-19.6533 L191.042,-18.457 C190.765,-19.4661 190.24,-20.2393 189.467,-20.7764 C188.694,-21.3135 187.591,-21.582 186.159,-21.582 C184.353,-21.582 183.059,-21.3298 182.277,-20.8252 C181.757,-20.4671 181.496,-20.0033 181.496,-19.4336 C181.496,-18.9453 181.724,-18.5303 182.18,-18.1885 C182.798,-17.7327 184.934,-17.0898 188.588,-16.2598 C192.242,-15.4297 194.794,-14.4124 196.242,-13.208 C197.674,-11.9873 198.391,-10.2865 198.391,-8.10547 C198.391,-5.72917 197.398,-3.68652 195.412,-1.97754 C193.426,-0.268555 190.489,0.585938 186.599,0.585938 C183.067,0.585938 180.271,-0.130208 178.212,-1.5625 C176.153,-2.99479 174.807,-4.93978 174.172,-7.39746 M216.479,-25.9277 L216.479,-20.459 L211.791,-20.459 L211.791,-10.0098 C211.791,-7.89388 211.836,-6.66097 211.925,-6.31104 C212.015,-5.9611 212.218,-5.6722 212.536,-5.44434 C212.853,-5.21647 213.24,-5.10254 213.695,-5.10254 C214.33,-5.10254 215.25,-5.32227 216.454,-5.76172 L217.04,-0.439453 C215.445,0.244141 213.638,0.585938 211.62,0.585938 C210.383,0.585938 209.268,0.378418 208.275,-0.0366211 C207.283,-0.45166 206.554,-0.98877 206.09,-1.64795 C205.626,-2.30713 205.305,-3.19824 205.126,-4.32129 C204.979,-5.11882 204.906,-6.73014 204.906,-9.15527 L204.906,-20.459 L201.757,-20.459 L201.757,-25.9277 L204.906,-25.9277 L204.906,-31.0791 L211.791,-35.083 L211.791,-25.9277 L216.479,-25.9277 M236.604,-8.25195 L243.439,-7.10449 C242.561,-4.59798 241.173,-2.68962 239.277,-1.37939 C237.381,-0.0691732 235.008,0.585938 232.16,0.585938 C227.652,0.585938 224.315,-0.887044 222.15,-3.83301 C220.441,-6.19303 219.587,-9.17155 219.587,-12.7686 C219.587,-17.0654 220.71,-20.4305 222.956,-22.8638 C225.202,-25.297 228.042,-26.5137 231.477,-26.5137 C235.334,-26.5137 238.378,-25.2401 240.607,-22.6929 C242.837,-20.1457 243.903,-16.2435 243.806,-10.9863 L226.618,-10.9863 C226.667,-8.95182 227.22,-7.36898 228.278,-6.23779 C229.336,-5.10661 230.655,-4.54102 232.233,-4.54102 C233.308,-4.54102 234.211,-4.83398 234.943,-5.41992 C235.676,-6.00586 236.229,-6.94987 236.604,-8.25195 M236.994,-15.1855 C236.945,-17.1712 236.433,-18.6808 235.456,-19.7144 C234.479,-20.7479 233.291,-21.2646 231.892,-21.2646 C230.394,-21.2646 229.157,-20.7194 228.181,-19.6289 C227.204,-18.5384 226.724,-17.0573 226.74,-15.1855 L236.994,-15.1855 M266.654,0 L266.654,-3.88184 C265.71,-2.49837 264.469,-1.40788 262.931,-0.610352 C261.393,0.187174 259.77,0.585938 258.061,0.585938 C256.319,0.585938 254.757,0.203451 253.373,-0.561523 C251.99,-1.3265 250.989,-2.40072 250.37,-3.78418 C249.752,-5.16764 249.442,-7.08008 249.442,-9.52148 L249.442,-25.9277 L256.303,-25.9277 L256.303,-14.0137 C256.303,-10.3678 256.429,-8.13395 256.681,-7.31201 C256.933,-6.49007 257.393,-5.83903 258.061,-5.35889 C258.728,-4.87874 259.574,-4.63867 260.6,-4.63867 C261.771,-4.63867 262.821,-4.96012 263.749,-5.60303 C264.677,-6.24593 265.312,-7.04346 265.653,-7.99561 C265.995,-8.94775 266.166,-11.2793 266.166,-14.9902 L266.166,-25.9277 L273.026,-25.9277 L273.026,0 L266.654,0 M287.156,0 L280.296,0 L280.296,-25.9277 L286.668,-25.9277 L286.668,-22.2412 C287.758,-23.9827 288.739,-25.1302 289.61,-25.6836 C290.481,-26.237 291.469,-26.5137 292.576,-26.5137 C294.139,-26.5137 295.644,-26.0824 297.093,-25.2197 L294.969,-19.2383 C293.813,-19.987 292.739,-20.3613 291.746,-20.3613 C290.786,-20.3613 289.972,-20.0968 289.305,-19.5679 C288.637,-19.0389 288.112,-18.0827 287.73,-16.6992 C287.347,-15.3158 287.156,-12.4186 287.156,-8.00781 L287.156,0" fill-rule="nonzero"/>
  </g>
  <g font-weight="400" stroke-opacity="1" stroke-linejoin="bevel" font-size="34.375" stroke="#000000" stroke-linecap="square" fill="none" font-style="normal" stroke-width="1" transform="matrix(0.999067,0,0,0.999067,0,0)" font-family="MS Shell Dlg 2"/>
  <g font-weight="400" stroke-opacity="1" stroke-linejoin="bevel" font-size="34.375" stroke="#000000" stroke-linecap="square" fill="none" font-style="normal" stroke-width="1" transform="matrix(11.8,0,0,11.8,0,0)" font-family="MS Shell Dlg 2"/>
  <g font-weight="400" fill-opacity="0.515785" stroke-opacity="1" stroke-linejoin="bevel" font-size="34.375" stroke="#72d8ec" stroke-linecap="square" fill="#b5b5b5" font-style="normal" stroke-width="3.07087" transform="matrix(0.999067,0,0,0.999067,23.6,100.3)" font-family="MS Shell Dlg 2">
   <path vector-effect="none" d="M0,0 L83,0 L83,47 L0,47 L0,0" fill-rule="evenodd"/>
  </g>
  <g font-weight="400" stroke-opacity="1" stroke-linejoin="bevel" font-size="34.375" stroke="#000000" stroke-linecap="square" fill="none" font-style="normal" stroke-width="1" transform="matrix(11.8,0,0,11.8,0,0)" font-family="MS Shell Dlg 2"/>
  <g font-weight="400" stroke-opacity="1" stroke-linejoin="bevel" font-size="34.375" stroke="#000000" stroke-linecap="square" fill="none" font-style="normal" stroke-width="1" transform="matrix(0.999067,0,0,0.999067,0,0)" font-family="MS Shell Dlg 2"/>
  <g font-weight="400" fill-opacity="1" font-size="34.375" stroke="none" fill="#000000" font-style="normal" transform="matrix(0.999067,0,0,0.999067,129.8,141.665)" font-family="MS Shell Dlg 2">
   <path vector-effect="none" d="M3.61328,-35.791 L16.8213,-35.791 C19.7998,-35.791 22.0703,-35.5632 23.6328,-35.1074 C25.7324,-34.4889 27.5309,-33.3903 29.0283,-31.8115 C30.5257,-30.2327 31.665,-28.3 32.4463,-26.0132 C33.2275,-23.7264 33.6182,-20.9066 33.6182,-17.5537 C33.6182,-14.6077 33.252,-12.0687 32.5195,-9.93652 C31.6243,-7.33236 30.3467,-5.22461 28.6865,-3.61328 C27.4333,-2.39258 25.7406,-1.44043 23.6084,-0.756836 C22.0133,-0.252279 19.8812,0 17.2119,0 L3.61328,0 L3.61328,-35.791 M10.8398,-29.7363 L10.8398,-6.03027 L16.2354,-6.03027 C18.2536,-6.03027 19.7103,-6.14421 20.6055,-6.37207 C21.7773,-6.66504 22.7498,-7.16146 23.5229,-7.86133 C24.2961,-8.5612 24.9268,-9.71273 25.415,-11.3159 C25.9033,-12.9191 26.1475,-15.1042 26.1475,-17.8711 C26.1475,-20.638 25.9033,-22.762 25.415,-24.2432 C24.9268,-25.7243 24.2432,-26.8799 23.3643,-27.71 C22.4854,-28.54 21.3704,-29.1016 20.0195,-29.3945 C19.0104,-29.6224 17.0329,-29.7363 14.0869,-29.7363 L10.8398,-29.7363 M54.6035,-8.25195 L61.4395,-7.10449 C60.5605,-4.59798 59.173,-2.68962 57.2769,-1.37939 C55.3807,-0.0691732 53.0085,0.585938 50.1602,0.585938 C45.6517,0.585938 42.3151,-0.887044 40.1504,-3.83301 C38.4414,-6.19303 37.5869,-9.17155 37.5869,-12.7686 C37.5869,-17.0654 38.71,-20.4305 40.9561,-22.8638 C43.2021,-25.297 46.0423,-26.5137 49.4766,-26.5137 C53.334,-26.5137 56.3776,-25.2401 58.6074,-22.6929 C60.8372,-20.1457 61.9033,-16.2435 61.8057,-10.9863 L44.6182,-10.9863 C44.667,-8.95182 45.2204,-7.36898 46.2783,-6.23779 C47.3363,-5.10661 48.6546,-4.54102 50.2334,-4.54102 C51.3076,-4.54102 52.2109,-4.83398 52.9434,-5.41992 C53.6758,-6.00586 54.2292,-6.94987 54.6035,-8.25195 M54.9941,-15.1855 C54.9453,-17.1712 54.4326,-18.6808 53.4561,-19.7144 C52.4795,-20.7479 51.2913,-21.2646 49.8916,-21.2646 C48.3942,-21.2646 47.1572,-20.7194 46.1807,-19.6289 C45.2041,-18.5384 44.724,-17.0573 44.7402,-15.1855 L54.9941,-15.1855 M46.2295,-29.1016 L49.5986,-36.4014 L57.2891,-36.4014 L50.5752,-29.1016 L46.2295,-29.1016 M90.1963,-18.2617 L83.4336,-17.041 C83.2057,-18.3919 82.689,-19.4092 81.8833,-20.0928 C81.0776,-20.7764 80.0319,-21.1182 78.7461,-21.1182 C77.0371,-21.1182 75.674,-20.5282 74.6567,-19.3481 C73.6395,-18.1681 73.1309,-16.1947 73.1309,-13.4277 C73.1309,-10.3516 73.6476,-8.17871 74.6812,-6.90918 C75.7147,-5.63965 77.1022,-5.00488 78.8438,-5.00488 C80.1458,-5.00488 81.2119,-5.37516 82.042,-6.11572 C82.8721,-6.85628 83.458,-8.12988 83.7998,-9.93652 L90.5381,-8.78906 C89.8382,-5.69661 88.4954,-3.361 86.5098,-1.78223 C84.5241,-0.203451 81.863,0.585938 78.5264,0.585938 C74.734,0.585938 71.7108,-0.610352 69.4565,-3.00293 C67.2023,-5.39551 66.0752,-8.70768 66.0752,-12.9395 C66.0752,-17.2201 67.2064,-20.5526 69.4688,-22.937 C71.7311,-25.3215 74.791,-26.5137 78.6484,-26.5137 C81.806,-26.5137 84.3166,-25.8341 86.1802,-24.4751 C88.0438,-23.116 89.3825,-21.0449 90.1963,-18.2617 M102.425,-35.791 L102.425,-22.6318 C104.638,-25.2197 107.283,-26.5137 110.359,-26.5137 C111.938,-26.5137 113.362,-26.2207 114.632,-25.6348 C115.901,-25.0488 116.858,-24.3001 117.5,-23.3887 C118.143,-22.4772 118.583,-21.4681 118.819,-20.3613 C119.055,-19.2546 119.173,-17.5374 119.173,-15.21 L119.173,0 L112.313,0 L112.313,-13.6963 C112.313,-16.4144 112.182,-18.1396 111.922,-18.8721 C111.661,-19.6045 111.202,-20.1864 110.542,-20.6177 C109.883,-21.049 109.057,-21.2646 108.064,-21.2646 C106.925,-21.2646 105.908,-20.988 105.013,-20.4346 C104.118,-19.8812 103.462,-19.047 103.047,-17.9321 C102.632,-16.8172 102.425,-15.1693 102.425,-12.9883 L102.425,0 L95.5645,0 L95.5645,-35.791 L102.425,-35.791 M141.604,-8.25195 L148.439,-7.10449 C147.561,-4.59798 146.173,-2.68962 144.277,-1.37939 C142.381,-0.0691732 140.008,0.585938 137.16,0.585938 C132.652,0.585938 129.315,-0.887044 127.15,-3.83301 C125.441,-6.19303 124.587,-9.17155 124.587,-12.7686 C124.587,-17.0654 125.71,-20.4305 127.956,-22.8638 C130.202,-25.297 133.042,-26.5137 136.477,-26.5137 C140.334,-26.5137 143.378,-25.2401 145.607,-22.6929 C147.837,-20.1457 148.903,-16.2435 148.806,-10.9863 L131.618,-10.9863 C131.667,-8.95182 132.22,-7.36898 133.278,-6.23779 C134.336,-5.10661 135.655,-4.54102 137.233,-4.54102 C138.308,-4.54102 139.211,-4.83398 139.943,-5.41992 C140.676,-6.00586 141.229,-6.94987 141.604,-8.25195 M141.994,-15.1855 C141.945,-17.1712 141.433,-18.6808 140.456,-19.7144 C139.479,-20.7479 138.291,-21.2646 136.892,-21.2646 C135.394,-21.2646 134.157,-20.7194 133.181,-19.6289 C132.204,-18.5384 131.724,-17.0573 131.74,-15.1855 L141.994,-15.1855 M140.163,-29.1016 L135.842,-29.1016 L129.104,-36.4014 L136.794,-36.4014 L140.163,-29.1016 M166.479,-25.9277 L166.479,-20.459 L161.791,-20.459 L161.791,-10.0098 C161.791,-7.89388 161.836,-6.66097 161.925,-6.31104 C162.015,-5.9611 162.218,-5.6722 162.536,-5.44434 C162.853,-5.21647 163.24,-5.10254 163.695,-5.10254 C164.33,-5.10254 165.25,-5.32227 166.454,-5.76172 L167.04,-0.439453 C165.445,0.244141 163.638,0.585938 161.62,0.585938 C160.383,0.585938 159.268,0.378418 158.275,-0.0366211 C157.283,-0.45166 156.554,-0.98877 156.09,-1.64795 C155.626,-2.30713 155.305,-3.19824 155.126,-4.32129 C154.979,-5.11882 154.906,-6.73014 154.906,-9.15527 L154.906,-20.459 L151.757,-20.459 L151.757,-25.9277 L154.906,-25.9277 L154.906,-31.0791 L161.791,-35.083 L161.791,-25.9277 L166.479,-25.9277 M186.604,-8.25195 L193.439,-7.10449 C192.561,-4.59798 191.173,-2.68962 189.277,-1.37939 C187.381,-0.0691732 185.008,0.585938 182.16,0.585938 C177.652,0.585938 174.315,-0.887044 172.15,-3.83301 C170.441,-6.19303 169.587,-9.17155 169.587,-12.7686 C169.587,-17.0654 170.71,-20.4305 172.956,-22.8638 C175.202,-25.297 178.042,-26.5137 181.477,-26.5137 C185.334,-26.5137 188.378,-25.2401 190.607,-22.6929 C192.837,-20.1457 193.903,-16.2435 193.806,-10.9863 L176.618,-10.9863 C176.667,-8.95182 177.22,-7.36898 178.278,-6.23779 C179.336,-5.10661 180.655,-4.54102 182.233,-4.54102 C183.308,-4.54102 184.211,-4.83398 184.943,-5.41992 C185.676,-6.00586 186.229,-6.94987 186.604,-8.25195 M186.994,-15.1855 C186.945,-17.1712 186.433,-18.6808 185.456,-19.7144 C184.479,-20.7479 183.291,-21.2646 181.892,-21.2646 C180.394,-21.2646 179.157,-20.7194 178.181,-19.6289 C177.204,-18.5384 176.724,-17.0573 176.74,-15.1855 L186.994,-15.1855 M206.156,0 L199.296,0 L199.296,-25.9277 L205.668,-25.9277 L205.668,-22.2412 C206.758,-23.9827 207.739,-25.1302 208.61,-25.6836 C209.481,-26.237 210.469,-26.5137 211.576,-26.5137 C213.139,-26.5137 214.644,-26.0824 216.093,-25.2197 L213.969,-19.2383 C212.813,-19.987 211.739,-20.3613 210.746,-20.3613 C209.786,-20.3613 208.972,-20.0968 208.305,-19.5679 C207.637,-19.0389 207.112,-18.0827 206.73,-16.6992 C206.347,-15.3158 206.156,-12.4186 206.156,-8.00781 L206.156,0 M218.589,-29.4434 L218.589,-35.791 L225.449,-35.791 L225.449,-29.4434 L218.589,-29.4434 M218.589,0 L218.589,-25.9277 L225.449,-25.9277 L225.449,0 L218.589,0 M247.604,-8.25195 L254.439,-7.10449 C253.561,-4.59798 252.173,-2.68962 250.277,-1.37939 C248.381,-0.0691732 246.008,0.585938 243.16,0.585938 C238.652,0.585938 235.315,-0.887044 233.15,-3.83301 C231.441,-6.19303 230.587,-9.17155 230.587,-12.7686 C230.587,-17.0654 231.71,-20.4305 233.956,-22.8638 C236.202,-25.297 239.042,-26.5137 242.477,-26.5137 C246.334,-26.5137 249.378,-25.2401 251.607,-22.6929 C253.837,-20.1457 254.903,-16.2435 254.806,-10.9863 L237.618,-10.9863 C237.667,-8.95182 238.22,-7.36898 239.278,-6.23779 C240.336,-5.10661 241.655,-4.54102 243.233,-4.54102 C244.308,-4.54102 245.211,-4.83398 245.943,-5.41992 C246.676,-6.00586 247.229,-6.94987 247.604,-8.25195 M247.994,-15.1855 C247.945,-17.1712 247.433,-18.6808 246.456,-19.7144 C245.479,-20.7479 244.291,-21.2646 242.892,-21.2646 C241.394,-21.2646 240.157,-20.7194 239.181,-19.6289 C238.204,-18.5384 237.724,-17.0573 237.74,-15.1855 L247.994,-15.1855" fill-rule="nonzero"/>
  </g>
  <g font-weight="400" stroke-opacity="1" stroke-linejoin="bevel" font-size="34.375" stroke="#000000" stroke-linecap="square" fill="none" font-style="normal" stroke-width="1" transform="matrix(0.999067,0,0,0.999067,0,0)" font-family="MS Shell Dlg 2"/>
  <g font-weight="400" stroke-opacity="1" stroke-linejoin="bevel" font-size="34.375" stroke="#000000" stroke-linecap="square" fill="none" font-style="normal" stroke-width="1" transform="matrix(0.999067,0,0,0.999067,0,0)" font-family="MS Shell Dlg 2"/>
  <g font-weight="400" stroke-opacity="1" stroke-linejoin="bevel" font-size="34.375" stroke="#000000" stroke-linecap="square" fill="none" font-style="normal" stroke-width="1" transform="matrix(11.8,0,0,11.8,0,0)" font-family="MS Shell Dlg 2"/>
  <g font-weight="400" stroke-opacity="1" stroke-linejoin="bevel" font-size="34.375" stroke="#000000" stroke-linecap="square" fill="none" font-style="normal" stroke-width="1" transform="matrix(11.8,0,0,11.8,0,0)" font-family="MS Shell Dlg 2"/>
  <g font-weight="400" stroke-opacity="1" stroke-linejoin="bevel" font-size="34.375" stroke="#000000" stroke-linecap="square" fill="none" font-style="normal" stroke-width="1" transform="matrix(11.8,0,0,11.8,0,0)" font-family="MS Shell Dlg 2"/>
  <g font-weight="400" stroke-opacity="1" stroke-linejoin="bevel" font-size="34.375" stroke="#000000" stroke-linecap="square" fill="none" font-style="normal" stroke-width="1" transform="matrix(1,0,0,1,0,0)" font-family="MS Shell Dlg 2"/>
 </g>
 <metadata>
  <rdf:RDF xmlns:dc="http://purl.org/dc/elements/1.1/" xmlns:rdfs="http://www.w3.org/2000/01/rdf-schema#" xmlns:rdf="http://www.w3.org/1999/02/22-rdf-syntax-ns#">
   <rdf:Description dc:format="image/svg+xml" dc:date="2026-02-10T13:17:43" dc:identifier="" dc:description="" dc:title="">
    <dc:creator>
     <rdf:Bag>
      <rdf:li>Lang Ethan</rdf:li>
     </rdf:Bag>
    </dc:creator>
    <dc:publisher>
     <rdf:Bag>
      <rdf:li>QGIS 3.40.7-Bratislava</rdf:li>
     </rdf:Bag>
    </dc:publisher>
    <dc:subject>
     <rdf:Bag/>
    </dc:subject>
   </rdf:Description>
   <cc:Work rdf:about="">
    <dc:format>image/svg+xml</dc:format>
    <dc:title></dc:title>
    <dc:date>2026-02-10T13:17:43</dc:date>
    <dc:identifier></dc:identifier>
    <dc:description></dc:description>
    <dc:creator>
     <cc:Agent>
      <dc:title>Lang Ethan</dc:title>
     </cc:Agent>
    </dc:creator>
    <dc:publisher>
     <cc:Agent>
      <dc:title>QGIS 3.40.7-Bratislava</dc:title>
     </cc:Agent>
    </dc:publisher>
   </cc:Work>
  </rdf:RDF>
 </metadata>
</svg>
